<svg width="24" height="24" xmlns="http://www.w3.org/2000/svg" fill="#000000">

 <g>
  <title>Layer 1</title>
  <g id="svg_1" fill="none">
   <path id="svg_2" d="m0,0l24,0l0,24l-24,0l0,-24z"/>
   <path id="svg_3" opacity="0.87" d="m0,0l24,0l0,24l-24,0l0,-24z"/>
  </g>
  <path fill="#2d3737" id="svg_4" d="m4,13c0.55,0 1,-0.45 1,-1s-0.45,-1 -1,-1s-1,0.45 -1,1s0.45,1 1,1zm0,4c0.55,0 1,-0.45 1,-1s-0.45,-1 -1,-1s-1,0.45 -1,1s0.45,1 1,1zm0,-8c0.55,0 1,-0.45 1,-1s-0.45,-1 -1,-1s-1,0.45 -1,1s0.45,1 1,1zm4,4l12,0c0.55,0 1,-0.45 1,-1s-0.45,-1 -1,-1l-12,0c-0.55,0 -1,0.45 -1,1s0.45,1 1,1zm0,4l12,0c0.55,0 1,-0.45 1,-1s-0.45,-1 -1,-1l-12,0c-0.55,0 -1,0.45 -1,1s0.45,1 1,1zm-1,-9c0,0.55 0.45,1 1,1l12,0c0.55,0 1,-0.45 1,-1s-0.45,-1 -1,-1l-12,0c-0.55,0 -1,0.45 -1,1zm-3,5c0.55,0 1,-0.45 1,-1s-0.45,-1 -1,-1s-1,0.45 -1,1s0.45,1 1,1zm0,4c0.55,0 1,-0.45 1,-1s-0.45,-1 -1,-1s-1,0.45 -1,1s0.45,1 1,1zm0,-8c0.55,0 1,-0.45 1,-1s-0.45,-1 -1,-1s-1,0.45 -1,1s0.45,1 1,1zm4,4l12,0c0.55,0 1,-0.45 1,-1s-0.45,-1 -1,-1l-12,0c-0.55,0 -1,0.45 -1,1s0.45,1 1,1zm0,4l12,0c0.55,0 1,-0.45 1,-1s-0.45,-1 -1,-1l-12,0c-0.55,0 -1,0.45 -1,1s0.45,1 1,1zm-1,-9c0,0.55 0.45,1 1,1l12,0c0.55,0 1,-0.45 1,-1s-0.45,-1 -1,-1l-12,0c-0.55,0 -1,0.45 -1,1z"/>
 </g>
</svg>