<svg width="23.999999999999996" height="23.999999999999996" xmlns="http://www.w3.org/2000/svg" fill="#000000">

 <g>
  <title>Layer 1</title>
  <path id="svg_1" fill="none" d="m0,0l24,0l0,24l-24,0l0,-24z"/>
  <path fill="#2d3732" id="svg_2" d="m13.89,8.7l-1.89,1.89l-1.89,-1.89c-0.39,-0.39 -1.02,-0.39 -1.41,0c-0.39,0.39 -0.39,1.02 0,1.41l1.89,1.89l-1.89,1.89c-0.39,0.39 -0.39,1.02 0,1.41c0.39,0.39 1.02,0.39 1.41,0l1.89,-1.89l1.89,1.89c0.39,0.39 1.02,0.39 1.41,0c0.39,-0.39 0.39,-1.02 0,-1.41l-1.89,-1.89l1.89,-1.89c0.39,-0.39 0.39,-1.02 0,-1.41c-0.39,-0.38 -1.03,-0.38 -1.41,0zm-1.89,-6.7c-5.53,0 -10,4.47 -10,10s4.47,10 10,10s10,-4.47 10,-10s-4.47,-10 -10,-10zm0,18c-4.41,0 -8,-3.59 -8,-8s3.59,-8 8,-8s8,3.59 8,8s-3.59,8 -8,8z"/>
 </g>
</svg>